<?xml version="1.0" encoding="utf-8"?>
<!-- created with bpmn-js / http://bpmn.io -->
<!DOCTYPE svg PUBLIC "-//W3C//DTD SVG 1.1//EN" "http://www.w3.org/Graphics/SVG/1.1/DTD/svg11.dtd">
<svg xmlns="http://www.w3.org/2000/svg" xmlns:xlink="http://www.w3.org/1999/xlink" width="1011" height="390" viewBox="154 75 1011 390" version="1.1"><defs><pattern id="djs-grid-pattern-244272" width="10" height="10" patternUnits="userSpaceOnUse"><circle cx="0.5" cy="0.5" r="0.5" style="fill: rgb(204, 204, 204);"/></pattern></defs><g class="djs-group"><g class="djs-element djs-shape" data-element-id="Participant_1ylvp0t" transform="matrix(1, 0, 0, 1, 159, 80)" style="display: block;"><g class="djs-visual"><rect x="0" y="0" width="1001" height="380" rx="0" ry="0" style="stroke-linecap: round; stroke-linejoin: round; stroke: rgb(34, 36, 42); stroke-width: 1.5px; fill: white; fill-opacity: 0.95;"/><path style="fill: none; stroke-linecap: round; stroke-linejoin: round; stroke: rgb(34, 36, 42); stroke-width: 1.5px;" d="M30,0L30,380"/><text style="font-family: Arial, sans-serif; font-size: 12px; font-weight: normal; fill: rgb(34, 36, 42);" lineHeight="1.2" class="djs-label" transform="matrix(-1.83697e-16, -1, 1, -1.83697e-16, 0, 380)"><tspan x="39.69166564941406" y="18.6">Система распределения преподавательской нагрузки</tspan></text></g><rect x="-5" y="-5" rx="4" width="1011" height="390" style="fill: none;" class="djs-outline"/><rect style="fill: none; stroke-opacity: 0; stroke: white; stroke-width: 15px;" class="djs-hit djs-hit-no-move" x="0" y="0" width="1001" height="380"/><rect style="fill: none; stroke-opacity: 0; stroke: white; stroke-width: 15px;" class="djs-hit djs-hit-click-stroke" x="0" y="0" width="1001" height="380"/><rect style="fill: none; stroke-opacity: 0; stroke: white; stroke-width: 15px;" class="djs-hit djs-hit-all" x="0" y="0" width="30" height="380"/></g><g class="djs-children"><g class="djs-group"><g class="djs-element djs-shape" data-element-id="Event_0gr822b" transform="matrix(1, 0, 0, 1, 212, 232)" style="display: block;"><g class="djs-visual"><circle cx="18" cy="18" r="18" style="stroke-linecap: round; stroke-linejoin: round; stroke: rgb(34, 36, 42); stroke-width: 2px; fill: white; fill-opacity: 0.95;"/></g><rect style="fill: none; stroke-opacity: 0; stroke: white; stroke-width: 15px;" class="djs-hit djs-hit-all" x="0" y="0" width="36" height="36"/><circle cx="18" cy="18" r="23" style="fill: none;" class="djs-outline"/></g></g><g class="djs-group"><g class="djs-element djs-shape" data-element-id="Activity_0e48n4l" transform="matrix(1, 0, 0, 1, 290, 210)" style="display: block;"><g class="djs-visual"><rect x="0" y="0" width="100" height="80" rx="10" ry="10" style="stroke-linecap: round; stroke-linejoin: round; stroke: rgb(34, 36, 42); stroke-width: 2px; fill: white; fill-opacity: 0.95;"/><text style="font-family: Arial, sans-serif; font-size: 12px; font-weight: normal; fill: rgb(34, 36, 42);" lineHeight="1.2" class="djs-label"><tspan x="24.79166603088379" y="22">Собрать </tspan><tspan x="22.191667556762695" y="36.4">данные о </tspan><tspan x="11.108333587646484" y="50.8">преподавател</tspan><tspan x="43.75" y="65.19999999999999">ях</tspan></text></g><rect style="fill: none; stroke-opacity: 0; stroke: white; stroke-width: 15px;" class="djs-hit djs-hit-all" x="0" y="0" width="100" height="80"/><rect x="-5" y="-5" rx="14" width="110" height="90" style="fill: none;" class="djs-outline"/></g></g><g class="djs-group"><g class="djs-element djs-shape" data-element-id="Activity_0v8s5l8" transform="matrix(1, 0, 0, 1, 420, 210)" style="display: block;"><g class="djs-visual"><rect x="0" y="0" width="100" height="80" rx="10" ry="10" style="stroke-linecap: round; stroke-linejoin: round; stroke: rgb(34, 36, 42); stroke-width: 2px; fill: white; fill-opacity: 0.95;"/><text style="font-family: Arial, sans-serif; font-size: 12px; font-weight: normal; fill: rgb(34, 36, 42);" lineHeight="1.2" class="djs-label"><tspan x="24.79166603088379" y="36.4">Собрать </tspan><tspan x="14.733333587646484" y="50.8">список групп</tspan></text></g><rect style="fill: none; stroke-opacity: 0; stroke: white; stroke-width: 15px;" class="djs-hit djs-hit-all" x="0" y="0" width="100" height="80"/><rect x="-5" y="-5" rx="14" width="110" height="90" style="fill: none;" class="djs-outline"/></g></g><g class="djs-group"><g class="djs-element djs-shape" data-element-id="Activity_0iktfr8" transform="matrix(1, 0, 0, 1, 550, 210)" style="display: block;"><g class="djs-visual"><rect x="0" y="0" width="100" height="80" rx="10" ry="10" style="stroke-linecap: round; stroke-linejoin: round; stroke: rgb(34, 36, 42); stroke-width: 2px; fill: white; fill-opacity: 0.95;"/><text style="font-family: Arial, sans-serif; font-size: 12px; font-weight: normal; fill: rgb(34, 36, 42);" lineHeight="1.2" class="djs-label"><tspan x="7.633335113525391" y="36.4">Ввести данные</tspan><tspan x="27.991666793823242" y="50.8">занятия</tspan></text></g><rect style="fill: none; stroke-opacity: 0; stroke: white; stroke-width: 15px;" class="djs-hit djs-hit-all" x="0" y="0" width="100" height="80"/><rect x="-5" y="-5" rx="14" width="110" height="90" style="fill: none;" class="djs-outline"/></g></g><g class="djs-group"><g class="djs-element djs-shape" data-element-id="Gateway_158m95l" transform="matrix(1, 0, 0, 1, 685, 225)" style="display: block;"><g class="djs-visual"><polygon style="stroke-linecap: round; stroke-linejoin: round; stroke: rgb(34, 36, 42); stroke-width: 2px; fill: white; fill-opacity: 0.95;" points="25,0 50,25 25,50 0,25"/><path style="fill: rgb(34, 36, 42); stroke-linecap: round; stroke-linejoin: round; stroke: rgb(34, 36, 42); stroke-width: 1px;" d="m 16,15 7.42857142857143,9.714285714285715 -7.42857142857143,9.714285714285715 3.428571428571429,0 5.714285714285715,-7.464228571428572 5.714285714285715,7.464228571428572 3.428571428571429,0 -7.42857142857143,-9.714285714285715 7.42857142857143,-9.714285714285715 -3.428571428571429,0 -5.714285714285715,7.464228571428572 -5.714285714285715,-7.464228571428572 -3.428571428571429,0 z"/></g><rect style="fill: none; stroke-opacity: 0; stroke: white; stroke-width: 15px;" class="djs-hit djs-hit-all" x="0" y="0" width="50" height="50"/><rect style="transform-box: fill-box; transform: rotate(45deg); transform-origin: center center 0px; fill: none;" x="2" y="2" rx="4" width="46" height="46" class="djs-outline"/></g></g><g class="djs-group"><g class="djs-element djs-shape" data-element-id="Activity_1b9n1wj" transform="matrix(1, 0, 0, 1, 820, 210)" style="display: block;"><g class="djs-visual"><rect x="0" y="0" width="100" height="80" rx="10" ry="10" style="stroke-linecap: round; stroke-linejoin: round; stroke: rgb(34, 36, 42); stroke-width: 2px; fill: white; fill-opacity: 0.95;"/><text style="font-family: Arial, sans-serif; font-size: 12px; font-weight: normal; fill: rgb(34, 36, 42);" lineHeight="1.2" class="djs-label"><tspan x="19.100000381469727" y="36.4">Назначить </tspan><tspan x="27.899999618530273" y="50.8">занятие</tspan></text></g><rect style="fill: none; stroke-opacity: 0; stroke: white; stroke-width: 15px;" class="djs-hit djs-hit-all" x="0" y="0" width="100" height="80"/><rect x="-5" y="-5" rx="14" width="110" height="90" style="fill: none;" class="djs-outline"/></g></g><g class="djs-group"><g class="djs-element djs-shape" data-element-id="Activity_0wfbi1p" transform="matrix(1, 0, 0, 1, 660, 340)" style="display: block;"><g class="djs-visual"><rect x="0" y="0" width="100" height="80" rx="10" ry="10" style="stroke-linecap: round; stroke-linejoin: round; stroke: rgb(34, 36, 42); stroke-width: 2px; fill: white; fill-opacity: 0.95;"/><text style="font-family: Arial, sans-serif; font-size: 12px; font-weight: normal; fill: rgb(34, 36, 42);" lineHeight="1.2" class="djs-label"><tspan x="11.25833511352539" y="14.799999999999999">Сообщить об </tspan><tspan x="27.34166717529297" y="29.199999999999996">ошибке </tspan><tspan x="11.191665649414062" y="43.599999999999994">"Преподавате</tspan><tspan x="15.950000762939453" y="57.99999999999999">ль не ведет </tspan><tspan x="11.308334350585938" y="72.39999999999999">этот предмет"</tspan></text></g><rect style="fill: none; stroke-opacity: 0; stroke: white; stroke-width: 15px;" class="djs-hit djs-hit-all" x="0" y="0" width="100" height="80"/><rect x="-5" y="-5" rx="14" width="110" height="90" style="fill: none;" class="djs-outline"/></g></g><g class="djs-group"><g class="djs-element djs-shape" data-element-id="Event_0cdnhqs" transform="matrix(1, 0, 0, 1, 992, 232)" style="display: block;"><g class="djs-visual"><circle cx="18" cy="18" r="18" style="stroke-linecap: round; stroke-linejoin: round; stroke: rgb(34, 36, 42); stroke-width: 4px; fill: white; fill-opacity: 0.95;"/></g><rect style="fill: none; stroke-opacity: 0; stroke: white; stroke-width: 15px;" class="djs-hit djs-hit-all" x="0" y="0" width="36" height="36"/><circle cx="18" cy="18" r="24" style="fill: none;" class="djs-outline"/></g></g><g class="djs-group"><g class="djs-element djs-connection" data-element-id="Flow_1ujw0fx" style="display: block;"><g class="djs-visual"><defs><marker id="marker-e0irc3vebabnah6ab96y13uab" viewBox="0 0 20 20" refX="11" refY="10" markerWidth="10" markerHeight="10" orient="auto"><path d="M 1 5 L 11 10 L 1 15 Z" style="stroke-linecap: round; stroke-linejoin: round; stroke: rgb(34, 36, 42); stroke-width: 1px; fill: rgb(34, 36, 42);"/></marker></defs><path style="fill: none; stroke-linecap: round; stroke-linejoin: round; stroke: rgb(34, 36, 42); stroke-width: 2px; marker-end: url('#marker-e0irc3vebabnah6ab96y13uab');" data-corner-radius="5" d="M248,250L290,250"/></g><path d="M248,250L290,250" style="fill: none; stroke-opacity: 0; stroke: white; stroke-width: 15px;" class="djs-hit djs-hit-stroke"/><rect x="243" y="245" rx="4" width="52" height="10" style="fill: none;" class="djs-outline"/></g></g><g class="djs-group"><g class="djs-element djs-connection" data-element-id="Flow_0gzhmy3" style="display: block;"><g class="djs-visual"><defs><marker id="marker-5ptlkyaog5ewpci77ine3h9d2" viewBox="0 0 20 20" refX="11" refY="10" markerWidth="10" markerHeight="10" orient="auto"><path d="M 1 5 L 11 10 L 1 15 Z" style="stroke-linecap: round; stroke-linejoin: round; stroke: rgb(34, 36, 42); stroke-width: 1px; fill: rgb(34, 36, 42);"/></marker></defs><path style="fill: none; stroke-linecap: round; stroke-linejoin: round; stroke: rgb(34, 36, 42); stroke-width: 2px; marker-end: url('#marker-5ptlkyaog5ewpci77ine3h9d2');" data-corner-radius="5" d="M390,250L420,250"/></g><path d="M390,250L420,250" style="fill: none; stroke-opacity: 0; stroke: white; stroke-width: 15px;" class="djs-hit djs-hit-stroke"/><rect x="385" y="245" rx="4" width="40" height="10" style="fill: none;" class="djs-outline"/></g></g><g class="djs-group"><g class="djs-element djs-connection" data-element-id="Flow_17gc0nx" style="display: block;"><g class="djs-visual"><defs><marker id="marker-2tkb40cor2o1aysmug3skh7sk" viewBox="0 0 20 20" refX="11" refY="10" markerWidth="10" markerHeight="10" orient="auto"><path d="M 1 5 L 11 10 L 1 15 Z" style="stroke-linecap: round; stroke-linejoin: round; stroke: rgb(34, 36, 42); stroke-width: 1px; fill: rgb(34, 36, 42);"/></marker></defs><path style="fill: none; stroke-linecap: round; stroke-linejoin: round; stroke: rgb(34, 36, 42); stroke-width: 2px; marker-end: url('#marker-2tkb40cor2o1aysmug3skh7sk');" data-corner-radius="5" d="M520,250L550,250"/></g><path d="M520,250L550,250" style="fill: none; stroke-opacity: 0; stroke: white; stroke-width: 15px;" class="djs-hit djs-hit-stroke"/><rect x="515" y="245" rx="4" width="40" height="10" style="fill: none;" class="djs-outline"/></g></g><g class="djs-group"><g class="djs-element djs-connection" data-element-id="Flow_1ql3g8y" style="display: block;"><g class="djs-visual"><defs><marker id="marker-5ja4y7594oq9x1xc6helw6e94" viewBox="0 0 20 20" refX="11" refY="10" markerWidth="10" markerHeight="10" orient="auto"><path d="M 1 5 L 11 10 L 1 15 Z" style="stroke-linecap: round; stroke-linejoin: round; stroke: rgb(34, 36, 42); stroke-width: 1px; fill: rgb(34, 36, 42);"/></marker></defs><path style="fill: none; stroke-linecap: round; stroke-linejoin: round; stroke: rgb(34, 36, 42); stroke-width: 2px; marker-end: url('#marker-5ja4y7594oq9x1xc6helw6e94');" data-corner-radius="5" d="M710,420L710,435C710,437.5,707.5,440,705,440L605,440C602.5,440,600,437.5,600,435L600,290"/></g><path d="M710,420L710,440L600,440L600,290" style="fill: none; stroke-opacity: 0; stroke: white; stroke-width: 15px;" class="djs-hit djs-hit-stroke"/><rect x="595" y="285" rx="4" width="120" height="160" style="fill: none;" class="djs-outline"/></g></g><g class="djs-group"><g class="djs-element djs-connection" data-element-id="Flow_1c1tnwa" style="display: block;"><g class="djs-visual"><defs><marker id="marker-ba7q5jofjhw3kxglx29y7vtc9" viewBox="0 0 20 20" refX="11" refY="10" markerWidth="10" markerHeight="10" orient="auto"><path d="M 1 5 L 11 10 L 1 15 Z" style="stroke-linecap: round; stroke-linejoin: round; stroke: rgb(34, 36, 42); stroke-width: 1px; fill: rgb(34, 36, 42);"/></marker></defs><path style="fill: none; stroke-linecap: round; stroke-linejoin: round; stroke: rgb(34, 36, 42); stroke-width: 2px; marker-end: url('#marker-ba7q5jofjhw3kxglx29y7vtc9');" data-corner-radius="5" d="M650,250L685,250"/></g><path d="M650,250L685,250" style="fill: none; stroke-opacity: 0; stroke: white; stroke-width: 15px;" class="djs-hit djs-hit-stroke"/><rect x="645" y="245" rx="4" width="45" height="10" style="fill: none;" class="djs-outline"/></g></g><g class="djs-group"><g class="djs-element djs-connection" data-element-id="Flow_15p5y2o" style="display: block;"><g class="djs-visual"><defs><marker id="marker-bwmtoklsktz7icpp2w5my4yml" viewBox="0 0 20 20" refX="11" refY="10" markerWidth="10" markerHeight="10" orient="auto"><path d="M 1 5 L 11 10 L 1 15 Z" style="stroke-linecap: round; stroke-linejoin: round; stroke: rgb(34, 36, 42); stroke-width: 1px; fill: rgb(34, 36, 42);"/></marker></defs><path style="fill: none; stroke-linecap: round; stroke-linejoin: round; stroke: rgb(34, 36, 42); stroke-width: 2px; marker-end: url('#marker-bwmtoklsktz7icpp2w5my4yml');" data-corner-radius="5" d="M735,250L820,250"/></g><path d="M735,250L820,250" style="fill: none; stroke-opacity: 0; stroke: white; stroke-width: 15px;" class="djs-hit djs-hit-stroke"/><rect x="730" y="245" rx="4" width="95" height="10" style="fill: none;" class="djs-outline"/></g></g><g class="djs-group"><g class="djs-element djs-connection" data-element-id="Flow_0sz8lza" style="display: block;"><g class="djs-visual"><defs><marker id="marker-4plvzldms98t0s8v9fcinhwhw" viewBox="0 0 20 20" refX="11" refY="10" markerWidth="10" markerHeight="10" orient="auto"><path d="M 1 5 L 11 10 L 1 15 Z" style="stroke-linecap: round; stroke-linejoin: round; stroke: rgb(34, 36, 42); stroke-width: 1px; fill: rgb(34, 36, 42);"/></marker></defs><path style="fill: none; stroke-linecap: round; stroke-linejoin: round; stroke: rgb(34, 36, 42); stroke-width: 2px; marker-end: url('#marker-4plvzldms98t0s8v9fcinhwhw');" data-corner-radius="5" d="M710,275L710,340"/></g><path d="M710,275L710,340" style="fill: none; stroke-opacity: 0; stroke: white; stroke-width: 15px;" class="djs-hit djs-hit-stroke"/><rect x="705" y="270" rx="4" width="10" height="75" style="fill: none;" class="djs-outline"/></g></g><g class="djs-group"><g class="djs-element djs-connection" data-element-id="Flow_1hrowhw" style="display: block;"><g class="djs-visual"><defs><marker id="marker-5vlkvqlcvljmifan81k13firc" viewBox="0 0 20 20" refX="11" refY="10" markerWidth="10" markerHeight="10" orient="auto"><path d="M 1 5 L 11 10 L 1 15 Z" style="stroke-linecap: round; stroke-linejoin: round; stroke: rgb(34, 36, 42); stroke-width: 1px; fill: rgb(34, 36, 42);"/></marker></defs><path style="fill: none; stroke-linecap: round; stroke-linejoin: round; stroke: rgb(34, 36, 42); stroke-width: 2px; marker-end: url('#marker-5vlkvqlcvljmifan81k13firc');" data-corner-radius="5" d="M920,250L992,250"/></g><path d="M920,250L992,250" style="fill: none; stroke-opacity: 0; stroke: white; stroke-width: 15px;" class="djs-hit djs-hit-stroke"/><rect x="915" y="245" rx="4" width="82" height="10" style="fill: none;" class="djs-outline"/></g></g></g></g><g class="djs-group"><g class="djs-element djs-shape" data-element-id="Event_0gr822b_label" transform="matrix(1, 0, 0, 1, 211, 275)" style="display: block;"><g class="djs-visual"><text style="font-family: Arial, sans-serif; font-size: 11px; font-weight: normal; fill: rgb(34, 36, 42);" lineHeight="1.2" class="djs-label"><tspan x="0" y="9.899999999999999">Начало</tspan></text></g><rect style="fill: none; stroke-opacity: 0; stroke: white; stroke-width: 15px;" class="djs-hit djs-hit-all" x="0" y="0" width="39" height="14"/><rect x="-5" y="-5" rx="4" width="49" height="24" style="fill: none;" class="djs-outline"/></g></g><g class="djs-group"><g class="djs-element djs-connection" data-element-id="Association_192crt6" style="display: block;"><g class="djs-visual"><path style="fill: none; stroke-linecap: round; stroke-linejoin: round; stroke: rgb(34, 36, 42); stroke-width: 2px; stroke-dasharray: 0px, 5px;" data-corner-radius="5" d="M626,210L645,180"/></g><path d="M626,210L645,180" style="fill: none; stroke-opacity: 0; stroke: white; stroke-width: 15px;" class="djs-hit djs-hit-stroke"/><rect x="621" y="175" rx="4" width="29" height="40" style="fill: none;" class="djs-outline"/></g></g><g class="djs-group"><g class="djs-element djs-connection" data-element-id="Association_19qu7n1" style="display: block;"><g class="djs-visual"><path style="fill: none; stroke-linecap: round; stroke-linejoin: round; stroke: rgb(34, 36, 42); stroke-width: 2px; stroke-dasharray: 0px, 5px;" data-corner-radius="5" d="M900,210L930,170"/></g><path d="M900,210L930,170" style="fill: none; stroke-opacity: 0; stroke: white; stroke-width: 15px;" class="djs-hit djs-hit-stroke"/><rect x="895" y="165" rx="4" width="40" height="50" style="fill: none;" class="djs-outline"/></g></g><g class="djs-group"><g class="djs-element djs-shape" data-element-id="TextAnnotation_0cahdho" transform="matrix(1, 0, 0, 1, 630, 110)" style="display: block;"><g class="djs-visual"><rect x="0" y="0" width="140" height="70" rx="0" ry="0" style="stroke-linecap: round; stroke-linejoin: round; stroke: none; stroke-width: 2px; fill: none;"/><path style="fill: none; stroke-linecap: round; stroke-linejoin: round; stroke: rgb(34, 36, 42); stroke-width: 2px;" d="m 0, 0 m 10,0 l -10,0 l 0,70 l 10,0"/><text style="font-family: Arial, sans-serif; font-size: 12px; font-weight: normal; fill: rgb(34, 36, 42);" lineHeight="1.2" class="djs-label"><tspan x="7" y="17.799999999999997">Преподаватель, </tspan><tspan x="7" y="32.199999999999996">группа, предмет, тип </tspan><tspan x="7" y="46.599999999999994">занятия</tspan></text></g><rect style="fill: none; stroke-opacity: 0; stroke: white; stroke-width: 15px;" class="djs-hit djs-hit-all" x="0" y="0" width="140" height="70"/><rect x="-5" y="-5" rx="4" width="150" height="80" style="fill: none;" class="djs-outline"/></g></g><g class="djs-group"><g class="djs-element djs-shape" data-element-id="Gateway_158m95l_label" transform="matrix(1, 0, 0, 1, 669, 180)" style="display: block;"><g class="djs-visual"><text style="font-family: Arial, sans-serif; font-size: 11px; font-weight: normal; fill: rgb(34, 36, 42);" lineHeight="1.2" class="djs-label"><tspan x="0" y="9.899999999999999">Преподаватель </tspan><tspan x="7.841663360595703" y="23.099999999999998">может вести </tspan><tspan x="16.566665649414062" y="36.3">предмет?</tspan></text></g><rect style="fill: none; stroke-opacity: 0; stroke: white; stroke-width: 15px;" class="djs-hit djs-hit-all" x="0" y="0" width="82" height="40"/><rect x="-5" y="-5" rx="4" width="92" height="50" style="fill: none;" class="djs-outline"/></g></g><g class="djs-group"><g class="djs-element djs-shape" data-element-id="Flow_15p5y2o_label" transform="matrix(1, 0, 0, 1, 762, 255)" style="display: block;"><g class="djs-visual"><text style="font-family: Arial, sans-serif; font-size: 11px; font-weight: normal; fill: rgb(34, 36, 42);" lineHeight="1.2" class="djs-label"><tspan x="0" y="9.899999999999999">Да</tspan></text></g><rect style="fill: none; stroke-opacity: 0; stroke: white; stroke-width: 15px;" class="djs-hit djs-hit-all" x="0" y="0" width="14" height="14"/><rect x="-5" y="-5" rx="4" width="24" height="24" style="fill: none;" class="djs-outline"/></g></g><g class="djs-group"><g class="djs-element djs-shape" data-element-id="Flow_0sz8lza_label" transform="matrix(1, 0, 0, 1, 720, 303)" style="display: block;"><g class="djs-visual"><text style="font-family: Arial, sans-serif; font-size: 11px; font-weight: normal; fill: rgb(34, 36, 42);" lineHeight="1.2" class="djs-label"><tspan x="0" y="9.899999999999999">Нет</tspan></text></g><rect style="fill: none; stroke-opacity: 0; stroke: white; stroke-width: 15px;" class="djs-hit djs-hit-all" x="0" y="0" width="20" height="14"/><rect x="-5" y="-5" rx="4" width="30" height="24" style="fill: none;" class="djs-outline"/></g></g><g class="djs-group"><g class="djs-element djs-shape" data-element-id="Event_0cdnhqs_label" transform="matrix(1, 0, 0, 1, 995, 275)" style="display: block;"><g class="djs-visual"><text style="font-family: Arial, sans-serif; font-size: 11px; font-weight: normal; fill: rgb(34, 36, 42);" lineHeight="1.2" class="djs-label"><tspan x="0" y="9.899999999999999">Конец</tspan></text></g><rect style="fill: none; stroke-opacity: 0; stroke: white; stroke-width: 15px;" class="djs-hit djs-hit-all" x="0" y="0" width="31" height="14"/><rect x="-5" y="-5" rx="4" width="41" height="24" style="fill: none;" class="djs-outline"/></g></g><g class="djs-group"><g class="djs-element djs-shape" data-element-id="TextAnnotation_0az6tu0" transform="matrix(1, 0, 0, 1, 930, 88)" style="display: block;"><g class="djs-visual"><rect x="0" y="0" width="100" height="113" rx="0" ry="0" style="stroke-linecap: round; stroke-linejoin: round; stroke: none; stroke-width: 2px; fill: none;"/><path style="fill: none; stroke-linecap: round; stroke-linejoin: round; stroke: rgb(34, 36, 42); stroke-width: 2px;" d="m 0, 0 m 10,0 l -10,0 l 0,113 l 10,0"/><text style="font-family: Arial, sans-serif; font-size: 12px; font-weight: normal; fill: rgb(34, 36, 42);" lineHeight="1.2" class="djs-label"><tspan x="7" y="17.799999999999997">Оплата </tspan><tspan x="7" y="32.199999999999996">зависит от </tspan><tspan x="7" y="46.599999999999994">предмета и </tspan><tspan x="7" y="60.99999999999999">типа занятия. </tspan><tspan x="7" y="75.39999999999999">Ставки </tspan><tspan x="7" y="89.79999999999998">хранятся в </tspan><tspan x="7" y="104.19999999999999">справочнике</tspan></text></g><rect style="fill: none; stroke-opacity: 0; stroke: white; stroke-width: 15px;" class="djs-hit djs-hit-all" x="0" y="0" width="100" height="113"/><rect x="-5" y="-5" rx="4" width="110" height="123" style="fill: none;" class="djs-outline"/></g></g></svg>